<svg width="185" height="58" viewBox="0 0 185 58" fill="none" xmlns="http://www.w3.org/2000/svg">
<path d="M96.652 27.744H87.724L85.516 32H80.812L92.812 9.632H98.028L102.092 32H97.356L96.652 27.744ZM96.076 24.256L94.476 14.784L89.548 24.256H96.076Z" fill="#8E2F3F"/>
<path d="M106.022 20.8C106.406 18.6027 107.238 16.64 108.518 14.912C109.82 13.1627 111.409 11.808 113.286 10.848C115.185 9.86667 117.201 9.376 119.334 9.376C121.83 9.376 123.91 10.016 125.574 11.296C127.238 12.576 128.241 14.3467 128.582 16.608H123.43C123.089 15.584 122.502 14.816 121.67 14.304C120.838 13.7707 119.814 13.504 118.598 13.504C117.297 13.504 116.081 13.8027 114.95 14.4C113.841 14.9973 112.902 15.8507 112.134 16.96C111.388 18.0693 110.886 19.3493 110.63 20.8C110.524 21.4827 110.47 22.048 110.47 22.496C110.47 24.224 110.961 25.5893 111.942 26.592C112.945 27.5947 114.3 28.096 116.006 28.096C117.222 28.096 118.342 27.8293 119.366 27.296C120.39 26.7627 121.254 25.984 121.958 24.96H127.11C125.958 27.2427 124.326 29.024 122.214 30.304C120.124 31.5627 117.83 32.192 115.334 32.192C113.457 32.192 111.793 31.8187 110.342 31.072C108.913 30.304 107.804 29.2267 107.014 27.84C106.225 26.4533 105.83 24.864 105.83 23.072C105.83 22.3253 105.894 21.568 106.022 20.8ZM157.977 9.664L154.041 32H149.529L152.089 17.536L143.577 32H140.153L136.729 17.504L134.169 32H129.657L133.625 9.664H138.713L142.905 26.24L152.889 9.664H157.977ZM166.278 13.152L165.254 18.944H172.774L172.166 22.4H164.646L163.59 28.448H172.07L171.43 32H158.438L162.406 9.632H175.366L174.758 13.152H166.278ZM86.55 38.622L83.844 54H82.304L85.01 38.622H86.55ZM95.1414 41.768C96.3734 41.768 97.3561 42.1053 98.0894 42.78C98.8374 43.44 99.2114 44.408 99.2114 45.684C99.2114 46.1533 99.1747 46.5787 99.1014 46.96L97.8474 54H96.3294L97.5394 47.136C97.5981 46.7987 97.6274 46.4393 97.6274 46.058C97.6274 45.09 97.3634 44.3567 96.8354 43.858C96.3074 43.3593 95.5667 43.11 94.6134 43.11C93.4547 43.11 92.4647 43.4767 91.6434 44.21C90.8221 44.9433 90.2867 46.0213 90.0374 47.444V47.378L88.8714 54H87.3314L89.4434 41.988H90.9834L90.6094 44.056C91.1227 43.3227 91.7754 42.758 92.5674 42.362C93.3594 41.966 94.2174 41.768 95.1414 41.768ZM105.257 54.176C104.04 54.176 103.05 53.8973 102.287 53.34C101.525 52.768 101.143 51.9907 101.143 51.008C101.143 50.832 101.151 50.7 101.165 50.612H102.661C102.603 51.316 102.808 51.8807 103.277 52.306C103.747 52.7313 104.436 52.944 105.345 52.944C106.269 52.944 107.01 52.7533 107.567 52.372C108.125 51.976 108.403 51.4553 108.403 50.81C108.403 50.4287 108.286 50.106 108.051 49.842C107.817 49.578 107.523 49.3653 107.171 49.204C106.834 49.028 106.357 48.83 105.741 48.61C104.979 48.3313 104.363 48.0747 103.893 47.84C103.439 47.5907 103.043 47.2533 102.705 46.828C102.383 46.388 102.221 45.838 102.221 45.178C102.221 44.518 102.412 43.9313 102.793 43.418C103.175 42.9047 103.695 42.5087 104.355 42.23C105.03 41.9513 105.793 41.812 106.643 41.812C107.831 41.812 108.799 42.1053 109.547 42.692C110.31 43.2787 110.691 44.056 110.691 45.024C110.691 45.2293 110.684 45.3833 110.669 45.486H109.217C109.232 45.4273 109.239 45.332 109.239 45.2C109.239 44.5547 108.983 44.034 108.469 43.638C107.971 43.242 107.325 43.044 106.533 43.044C105.741 43.044 105.081 43.2347 104.553 43.616C104.04 43.9827 103.783 44.4813 103.783 45.112C103.783 45.5373 103.908 45.8967 104.157 46.19C104.407 46.4687 104.715 46.696 105.081 46.872C105.448 47.048 105.939 47.2533 106.555 47.488C107.289 47.7667 107.875 48.0233 108.315 48.258C108.77 48.4927 109.151 48.8153 109.459 49.226C109.767 49.6367 109.921 50.15 109.921 50.766C109.921 51.8073 109.489 52.636 108.623 53.252C107.758 53.868 106.636 54.176 105.257 54.176ZM115.02 50.744C114.976 51.008 114.954 51.2353 114.954 51.426C114.954 51.8953 115.079 52.2253 115.328 52.416C115.592 52.592 116.017 52.68 116.604 52.68H118.012L117.77 54H116.12C115.211 54 114.529 53.824 114.074 53.472C113.619 53.12 113.392 52.5407 113.392 51.734C113.392 51.4113 113.421 51.0813 113.48 50.744L114.8 43.286H113.128L113.37 41.988H115.042L115.57 38.974H117.11L116.582 41.988H119.904L119.662 43.286H116.34L115.02 50.744ZM123.61 39.722C123.331 39.722 123.104 39.6413 122.928 39.48C122.752 39.304 122.664 39.0767 122.664 38.798C122.664 38.4167 122.796 38.1013 123.06 37.852C123.324 37.588 123.639 37.456 124.006 37.456C124.285 37.456 124.505 37.5367 124.666 37.698C124.842 37.8593 124.93 38.072 124.93 38.336C124.93 38.7173 124.798 39.0473 124.534 39.326C124.27 39.59 123.962 39.722 123.61 39.722ZM123.962 41.988L121.85 54H120.31L122.422 41.988H123.962ZM127.889 50.744C127.845 51.008 127.823 51.2353 127.823 51.426C127.823 51.8953 127.948 52.2253 128.197 52.416C128.461 52.592 128.887 52.68 129.473 52.68H130.881L130.639 54H128.989C128.08 54 127.398 53.824 126.943 53.472C126.489 53.12 126.261 52.5407 126.261 51.734C126.261 51.4113 126.291 51.0813 126.349 50.744L127.669 43.286H125.997L126.239 41.988H127.911L128.439 38.974H129.979L129.451 41.988H132.773L132.531 43.286H129.209L127.889 50.744ZM145.697 41.988L143.585 54H142.045L142.419 51.888C141.92 52.636 141.275 53.208 140.483 53.604C139.691 54 138.84 54.198 137.931 54.198C136.699 54.198 135.709 53.868 134.961 53.208C134.213 52.5333 133.839 51.558 133.839 50.282C133.839 49.8127 133.876 49.3873 133.949 49.006L135.181 41.988H136.699L135.489 48.83C135.43 49.1673 135.401 49.5193 135.401 49.886C135.401 50.854 135.665 51.5947 136.193 52.108C136.736 52.6067 137.484 52.856 138.437 52.856C139.552 52.856 140.512 52.5187 141.319 51.844C142.126 51.1547 142.668 50.15 142.947 48.83L144.157 41.988H145.697ZM149.653 50.744C149.609 51.008 149.587 51.2353 149.587 51.426C149.587 51.8953 149.712 52.2253 149.961 52.416C150.225 52.592 150.65 52.68 151.237 52.68H152.645L152.403 54H150.753C149.844 54 149.162 53.824 148.707 53.472C148.252 53.12 148.025 52.5407 148.025 51.734C148.025 51.4113 148.054 51.0813 148.113 50.744L149.433 43.286H147.761L148.003 41.988H149.675L150.203 38.974H151.743L151.215 41.988H154.537L154.295 43.286H150.973L149.653 50.744ZM162.291 41.812C163.303 41.812 164.168 42.01 164.887 42.406C165.605 42.7873 166.148 43.3153 166.515 43.99C166.896 44.6647 167.087 45.4347 167.087 46.3C167.087 46.696 167.057 47.048 166.999 47.356C166.911 47.796 166.823 48.192 166.735 48.544H156.769C156.725 48.8227 156.703 49.0867 156.703 49.336C156.703 50.4653 157.04 51.338 157.715 51.954C158.404 52.57 159.277 52.878 160.333 52.878C161.345 52.878 162.232 52.636 162.995 52.152C163.757 51.668 164.315 51.0153 164.667 50.194H166.317C165.818 51.3673 165.019 52.328 163.919 53.076C162.833 53.8093 161.565 54.176 160.113 54.176C158.617 54.176 157.414 53.7507 156.505 52.9C155.61 52.0347 155.163 50.8613 155.163 49.38C155.163 48.94 155.207 48.478 155.295 47.994C155.515 46.7473 155.955 45.6547 156.615 44.716C157.289 43.7773 158.118 43.0587 159.101 42.56C160.083 42.0613 161.147 41.812 162.291 41.812ZM165.415 47.4C165.488 46.9893 165.525 46.6447 165.525 46.366C165.525 45.3247 165.195 44.5253 164.535 43.968C163.875 43.4107 163.031 43.132 162.005 43.132C161.257 43.132 160.538 43.2933 159.849 43.616C159.159 43.9387 158.558 44.4227 158.045 45.068C157.531 45.7133 157.179 46.4907 156.989 47.4H165.415Z" fill="black"/>
<path fill-rule="evenodd" clip-rule="evenodd" d="M18.6767 7.25057L18.2903 7.12176L18.2902 7.12173C17.9038 6.99293 17.5174 6.86415 17.2598 6.99294L14.1685 6.09133L17.131 4.80327C17.9038 4.41685 18.6767 4.15923 19.4495 3.90162L19.8359 3.7728L20.2223 3.90162L21.3816 4.28806C25.1169 5.3185 28.9811 5.06089 32.8453 3.64403C33.0385 3.57963 33.2317 3.48301 33.4249 3.3864C33.6181 3.28979 33.8113 3.19318 34.0046 3.12877L34.391 3H34.7774C35.679 3.12881 36.4519 3.38642 37.2247 3.64403L39.9296 4.54564L35.9366 6.47773C32.7165 7.76578 29.4964 8.53863 26.1474 8.53863C22.9273 8.53863 20.3511 7.8946 18.6767 7.25057ZM9.70773 15.1315L9.70774 15.1315C9.8673 15.08 10.0238 15.0294 10.1754 14.9789C13.6532 14.0773 17.3885 14.2061 21.1239 15.6229C23.5712 16.5246 26.0185 16.911 28.7234 16.911C34.1333 16.911 39.5431 14.9789 44.5665 11.2435L46.4986 9.69787L47.1426 9.18265L45.9834 8.281C45.597 7.89458 45.0817 7.50818 44.5665 7.25057L43.7937 6.73535L43.1496 7.25057C43.0208 7.31497 42.9242 7.41157 42.8276 7.50818C42.731 7.60478 42.6344 7.70138 42.5056 7.76578C35.6789 12.918 28.8522 14.3349 22.412 11.8876C17.775 10.2131 13.1379 9.82669 8.50092 11.2435C8.1145 11.3724 7.72809 11.5011 7.21286 11.6299L6.95528 11.7588L6.56884 12.1452C6.56884 12.2248 6.51964 12.2552 6.45165 12.2972C6.40963 12.3232 6.36044 12.3536 6.31125 12.4028C6.05364 12.7892 5.76382 13.1434 5.47401 13.4976L5.474 13.4976L5.47399 13.4977C5.18418 13.8519 4.89436 14.2061 4.63675 14.5925L2.18945 18.3279L6.18244 16.267C6.69262 16.267 7.12196 16.1053 7.47048 15.9741C7.56191 15.9397 7.64777 15.9073 7.72808 15.8806C8.34933 15.5699 9.05383 15.3425 9.70773 15.1315ZM13.0094 23.3513C9.40282 24.3817 6.0539 26.3138 3.09137 29.4052C2.82729 29.5812 2.62336 29.8174 2.43848 30.0316L2.43846 30.0316C2.35282 30.1308 2.27126 30.2252 2.18971 30.3068L0 32.6253L0.128813 29.4052C0.195514 29.005 0.227679 28.5702 0.261075 28.1188C0.292171 27.6985 0.324335 27.2638 0.38644 26.8291V26.4426L0.644028 26.185L1.28806 25.541L3.99298 23.3513C6.56909 21.6768 9.14522 20.3888 11.8501 19.6159C16.1007 18.4567 20.7377 18.7143 25.2459 20.3888C34.7775 23.9953 43.1499 18.7143 48.5597 13.5621L49.075 13.0468L49.9766 12.1452L50.7494 13.1757C50.895 13.3697 51.0222 13.5637 51.1449 13.7508C51.3481 14.0606 51.539 14.3516 51.7799 14.5925L52.2951 15.3653L51.6511 15.8806L49.9766 17.555C45.5972 21.2904 35.5504 28.2459 23.9579 23.9953C20.2225 22.5785 16.4871 22.4497 13.0094 23.3513ZM15.5855 31.7236C19.0633 30.822 22.7986 30.9508 26.534 32.3677C30.6558 33.9133 41.2178 36.103 53.0679 25.4122L55 23.4801L55.1288 23.3513L55.6441 22.8361L55.3864 22.192C55.2576 21.6769 55.0001 21.0329 54.7425 20.3889L54.7424 20.3888L54.0984 18.5854L52.8103 19.8735C52.7271 20.0399 52.5903 20.1525 52.4343 20.2808C52.3488 20.3512 52.2576 20.4263 52.1663 20.5175C46.4988 26.3138 37.7401 32.2389 27.6932 28.6323C23.185 26.9578 18.548 26.7002 14.2974 27.8595C10.1757 29.0187 6.5691 31.2084 3.22016 34.2998V34.1709L1.28807 36.2318C1.28807 36.3114 1.23887 36.3419 1.17088 36.3839C1.12887 36.4099 1.07968 36.4403 1.03048 36.4895L0.644043 36.8759L0.772856 37.3911C0.837259 37.7131 0.933862 38.0351 1.03046 38.3571C1.12707 38.6791 1.22367 39.0011 1.28807 39.3232L2.06091 41.3841L3.34897 39.7096C3.41337 39.5808 3.50997 39.4842 3.60657 39.3876C3.70318 39.291 3.79978 39.1944 3.86418 39.0656L4.08805 38.8629C6.77422 36.4299 10.4487 33.1018 15.5855 31.7236ZM33.2322 45.6346C28.724 43.9601 24.087 43.7025 19.8364 44.8618C16.8739 45.6346 14.0401 47.1803 11.464 49.1124L9.66072 50.6581L9.14551 51.1733L10.3048 52.2037C10.3844 52.2037 10.4148 52.2529 10.4568 52.3209C10.4828 52.3629 10.5132 52.4121 10.5624 52.4613C10.751 52.6499 10.9395 52.7695 11.1786 52.921L11.1787 52.9211C11.2662 52.9766 11.3605 53.0363 11.464 53.1054L12.2368 53.6206L13.0097 52.9765C13.1385 52.8477 13.3961 52.5901 13.6537 52.4613C15.9722 50.5292 18.5483 49.2412 21.2532 48.5972C24.731 47.6955 28.4663 47.8243 32.2017 49.2412C35.293 50.4004 41.6045 51.8173 49.2041 48.5972L49.4617 48.4683L49.8481 48.0819C49.8481 48.0023 49.8973 47.9719 49.9653 47.9299C50.0073 47.9039 50.0565 47.8735 50.1057 47.8243C50.7497 47.0515 51.3938 46.2787 51.909 45.377L54.4851 41.384L50.3633 43.7025C44.3094 47.0515 38.7708 47.6955 33.2322 45.6346ZM36.9675 54.3936C36.7743 54.3292 36.6133 54.2648 36.4523 54.2003C36.2913 54.1359 36.1303 54.0715 35.937 54.0071C31.4288 52.3326 26.7918 52.0751 22.5412 53.2343L22.5409 53.2344C21.6393 53.492 20.7379 53.7496 19.8363 54.1359L16.745 55.5528L15.9722 55.9392L18.5483 56.8409L20.8668 57.6137L21.2532 57.7425L21.6396 57.6137C21.7684 57.5708 21.8972 57.5135 22.0261 57.4563C22.2837 57.3418 22.5413 57.2273 22.7988 57.2273C23.0565 57.2273 23.3141 57.0985 23.5717 56.9697C26.663 56.1968 30.012 56.1968 33.6185 57.3561C33.8117 57.4205 33.9727 57.4849 34.1337 57.5493L34.1337 57.5493L34.1339 57.5494C34.2949 57.6138 34.4559 57.6781 34.649 57.7425L35.293 58.0001L35.6794 57.8713C35.8165 57.8321 35.9565 57.793 36.0982 57.7533L36.0985 57.7533C36.8886 57.5323 37.7291 57.2973 38.3843 56.9697L41.9909 55.6816L38.2555 54.78C38.0623 54.7156 37.8369 54.6512 37.6115 54.5868C37.3861 54.5224 37.1607 54.458 36.9675 54.3936ZM54.7428 29.6628L56.6748 27.7307L56.5461 30.6933C56.5461 31.0797 56.5139 31.4983 56.4817 31.9169C56.4495 32.3355 56.4173 32.7541 56.4173 33.1406V33.527L56.0308 33.9134C55.902 34.0422 55.7732 34.1388 55.6444 34.2354C55.5156 34.332 55.3868 34.4286 55.258 34.5574C50.8786 38.2928 44.9536 41.6417 39.0285 42.2858C35.6796 42.6722 32.3306 42.2857 29.1104 41.1265C25.3751 39.7096 21.6397 39.5808 18.162 40.4825C14.2978 41.5129 10.9489 43.5738 7.85752 46.9227L7.3423 47.438L6.44065 48.5972L5.66785 47.438C5.41024 46.9228 5.15261 46.5364 4.76619 46.0211L4.25098 45.2483L4.76619 44.6043L6.44065 42.801C9.66079 39.7097 13.2674 37.6488 17.2604 36.4895C21.5109 35.3303 26.1479 35.5878 30.6561 37.2623C40.1877 40.8689 48.6889 35.4591 53.97 30.4356L54.7428 29.6628Z" fill="#201B21"/>
</svg>
